<?xml version="1.0" encoding="UTF-8"?>
<svg width="153px" height="26px" viewBox="0 0 153 26" version="1.1" xmlns="http://www.w3.org/2000/svg" xmlns:xlink="http://www.w3.org/1999/xlink">
    <title>Group 16</title>
    <g id="Designs" stroke="none" stroke-width="1" fill="none" fill-rule="evenodd">
        <g id="Desktop---Board---Light---Empty" transform="translate(-34.000000, -32.000000)">
            <g id="Group-16" transform="translate(34.000000, 32.776000)">
                <path d="M44.56,24.224 L44.56,18.88 L46.48,16.768 L50.928,24.224 L56.368,24.224 L50.064,13.792 L56.4,6.752 L50.48,6.752 L44.56,13.056 L44.56,0 L39.76,0 L39.76,24.224 L44.56,24.224 Z M63.92,24.608 C66.096,24.608 67.8453333,23.936 69.168,22.592 L69.168,24.224 L73.648,24.224 L73.648,12.704 C73.648,11.4453333 73.3333333,10.3413333 72.704,9.392 C72.0746667,8.44266667 71.1946667,7.70133333 70.064,7.168 C68.9333333,6.63466667 67.632,6.368 66.16,6.368 C64.304,6.368 62.6773333,6.79466667 61.28,7.648 C59.8826667,8.50133333 58.928,9.65333333 58.416,11.104 L62.256,12.928 C62.5546667,12.16 63.0293333,11.5413333 63.68,11.072 C64.3306667,10.6026667 65.0826667,10.368 65.936,10.368 C66.832,10.368 67.5413333,10.592 68.064,11.04 C68.5866667,11.488 68.848,12.0426667 68.848,12.704 L68.848,13.184 L64.016,13.952 C61.9253333,14.2933333 60.368,14.944 59.344,15.904 C58.32,16.864 57.808,18.08 57.808,19.552 C57.808,21.1306667 58.3573333,22.368 59.456,23.264 C60.5546667,24.16 62.0426667,24.608 63.92,24.608 Z M64.88,21.088 C64.2826667,21.088 63.7813333,20.9386667 63.376,20.64 C62.9706667,20.3413333 62.768,19.9253333 62.768,19.392 C62.768,18.816 62.9493333,18.3733333 63.312,18.064 C63.6746667,17.7546667 64.1973333,17.536 64.88,17.408 L68.848,16.704 L68.848,17.248 C68.848,18.3146667 68.4853333,19.2213333 67.76,19.968 C67.0346667,20.7146667 66.0746667,21.088 64.88,21.088 Z M81.968,24.224 L81.968,14.016 C81.968,13.0133333 82.2666667,12.208 82.864,11.6 C83.4613333,10.992 84.2293333,10.688 85.168,10.688 C86.1066667,10.688 86.8746667,10.992 87.472,11.6 C88.0693333,12.208 88.368,13.0133333 88.368,14.016 L88.368,24.224 L93.168,24.224 L93.168,12.992 C93.168,11.6693333 92.8906667,10.512 92.336,9.52 C91.7813333,8.528 91.008,7.75466667 90.016,7.2 C89.024,6.64533333 87.8666667,6.368 86.544,6.368 C85.4346667,6.368 84.4533333,6.576 83.6,6.992 C82.7466667,7.408 82.096,8.04266667 81.648,8.896 L81.648,6.752 L77.168,6.752 L77.168,24.224 L81.968,24.224 Z M106.128,24.608 C107.834667,24.608 109.36,24.2026667 110.704,23.392 C112.048,22.5813333 113.109333,21.4826667 113.888,20.096 C114.666667,18.7093333 115.056,17.1733333 115.056,15.488 C115.056,13.7813333 114.661333,12.24 113.872,10.864 C113.082667,9.488 112.016,8.39466667 110.672,7.584 C109.328,6.77333333 107.824,6.368 106.16,6.368 C104.048,6.368 102.373333,6.98666667 101.136,8.224 L101.136,0 L96.336,0 L96.336,24.224 L100.816,24.224 L100.816,22.56 C101.434667,23.2213333 102.208,23.728 103.136,24.08 C104.064,24.432 105.061333,24.608 106.128,24.608 Z M105.552,20.288 C104.250667,20.288 103.189333,19.8453333 102.368,18.96 C101.546667,18.0746667 101.136,16.9173333 101.136,15.488 C101.136,14.08 101.546667,12.928 102.368,12.032 C103.189333,11.136 104.250667,10.688 105.552,10.688 C106.874667,10.688 107.962667,11.1413333 108.816,12.048 C109.669333,12.9546667 110.096,14.1013333 110.096,15.488 C110.096,16.896 109.669333,18.048 108.816,18.944 C107.962667,19.84 106.874667,20.288 105.552,20.288 Z M123.28,24.608 C125.456,24.608 127.205333,23.936 128.528,22.592 L128.528,24.224 L133.008,24.224 L133.008,12.704 C133.008,11.4453333 132.693333,10.3413333 132.064,9.392 C131.434667,8.44266667 130.554667,7.70133333 129.424,7.168 C128.293333,6.63466667 126.992,6.368 125.52,6.368 C123.664,6.368 122.037333,6.79466667 120.64,7.648 C119.242667,8.50133333 118.288,9.65333333 117.776,11.104 L121.616,12.928 C121.914667,12.16 122.389333,11.5413333 123.04,11.072 C123.690667,10.6026667 124.442667,10.368 125.296,10.368 C126.192,10.368 126.901333,10.592 127.424,11.04 C127.946667,11.488 128.208,12.0426667 128.208,12.704 L128.208,13.184 L123.376,13.952 C121.285333,14.2933333 119.728,14.944 118.704,15.904 C117.68,16.864 117.168,18.08 117.168,19.552 C117.168,21.1306667 117.717333,22.368 118.816,23.264 C119.914667,24.16 121.402667,24.608 123.28,24.608 Z M124.24,21.088 C123.642667,21.088 123.141333,20.9386667 122.736,20.64 C122.330667,20.3413333 122.128,19.9253333 122.128,19.392 C122.128,18.816 122.309333,18.3733333 122.672,18.064 C123.034667,17.7546667 123.557333,17.536 124.24,17.408 L128.208,16.704 L128.208,17.248 C128.208,18.3146667 127.845333,19.2213333 127.12,19.968 C126.394667,20.7146667 125.434667,21.088 124.24,21.088 Z M141.328,24.224 L141.328,14.016 C141.328,13.0133333 141.626667,12.208 142.224,11.6 C142.821333,10.992 143.589333,10.688 144.528,10.688 C145.466667,10.688 146.234667,10.992 146.832,11.6 C147.429333,12.208 147.728,13.0133333 147.728,14.016 L147.728,24.224 L152.528,24.224 L152.528,12.992 C152.528,11.6693333 152.250667,10.512 151.696,9.52 C151.141333,8.528 150.368,7.75466667 149.376,7.2 C148.384,6.64533333 147.226667,6.368 145.904,6.368 C144.794667,6.368 143.813333,6.576 142.96,6.992 C142.106667,7.408 141.456,8.04266667 141.008,8.896 L141.008,6.752 L136.528,6.752 L136.528,24.224 L141.328,24.224 Z" id="kanban" fill="#000112" fill-rule="nonzero"></path>
                <g id="Group-15" transform="translate(0.000000, 0.224000)" fill="#635FC7">
                    <rect id="Rectangle" x="0" y="0" width="6" height="25" rx="2"></rect>
                    <rect id="Rectangle-Copy" opacity="0.75" x="9" y="0" width="6" height="25" rx="2"></rect>
                    <rect id="Rectangle-Copy-2" opacity="0.5" x="18" y="0" width="6" height="25" rx="2"></rect>
                </g>
            </g>
        </g>
    </g>
</svg>